<?xml version="1.0" encoding="utf-8"?>
<!-- Generator: Adobe Illustrator 24.1.1, SVG Export Plug-In . SVG Version: 6.00 Build 0)  -->
<svg version="1.1" id="Camada_1" xmlns="http://www.w3.org/2000/svg" xmlns:xlink="http://www.w3.org/1999/xlink" x="0px" y="0px"
	 viewBox="0 0 1450.4 643.6" style="enable-background:new 0 0 1450.4 643.6;" xml:space="preserve">
<g>
	<g>
		<path d="M986.7,172.2c-0.3,0.1-0.6,0.2-0.9,0.2c-17.5,0-35.1,0-52.6,0c-2.2-7.4-4.5-14.8-6.7-22.2c-0.2-0.8-0.5-1-1.3-1
			c-19.5,0-39.1,0-58.6,0c-0.8,0-1.1,0.3-1.3,1c-1.3,4.7-2.7,9.3-4,14c-0.8,2.8-1.5,5.5-2.3,8.3c-17.3,0-34.6,0-51.9,0
			c0.1-0.3,0.2-0.7,0.3-1C827,116.3,846.8,61.2,866.6,6.1c0.7-2,1.4-4.1,2.1-6.1c18.6,0,37.2,0,55.8,0c0.1,0.3,0.3,0.6,0.4,1
			c20.1,55.9,40.2,111.8,60.4,167.7C985.7,169.8,986.2,171,986.7,172.2z M875,116.1c14.1,0,28.1,0,42.3,0
			c-7.1-23.9-14.3-47.7-21.4-71.5c-0.1,0-0.2,0-0.3,0C888.8,68.4,881.9,92.2,875,116.1z"/>
		<path d="M518.1,172.4c-18.1,0-36.2,0-54.4,0c0-0.4,0-0.8,0-1.1c0-56.7,0-113.4,0-170.2c0-0.4,0-0.8,0-1.1c44,0,88.1,0,132.1,0
			c-0.1,0.3-0.2,0.7-0.3,1c-4.3,11.6-8.7,23.3-13,34.9c-0.6,1.7-0.2,1.5-2.2,1.5c-20.2,0-40.5,0-60.7,0c-0.5,0-1,0-1.5,0.1
			c0,11.7,0,23.3,0,35c17.5,0,34.9,0,52.4,0c-0.2,0.5-0.3,0.9-0.5,1.3c-4.6,11.7-9.1,23.4-13.7,35.1c-0.4,1-0.9,1.2-1.9,1.2
			c-11.6,0-23.2,0-34.9,0c-0.5,0-1,0-1.6,0c0,0.6,0,1,0,1.5c0,16.8,0,33.5,0,50.3C518,165.4,518.1,168.9,518.1,172.4z"/>
		<path d="M757.7,172.4c-18.1,0-36.1,0-54.2,0c0-0.4-0.1-0.9-0.1-1.3c0-56.6,0-113.2,0-169.8c0-0.4,0-0.9,0.1-1.3
			c44,0,88.1,0,132.1,0c-0.1,0.2-0.1,0.4-0.2,0.6c-4.4,11.8-8.9,23.6-13.3,35.5c-0.4,1.1-0.9,1.4-2.1,1.4c-20.3,0-40.6,0-60.8,0
			c-0.5,0-1,0-1.6,0c0,11.8,0,23.4,0,35.1c17.5,0,34.9,0,52.4,0c-0.1,0.4-0.2,0.8-0.4,1.1c-4.6,11.8-9.3,23.6-13.9,35.4
			c-0.3,0.9-0.7,1.2-1.7,1.2c-11.7,0-23.4,0-35.1,0c-0.5,0-0.9,0-1.5,0c0,0.6,0,1.1,0,1.6C757.7,131.9,757.7,152.2,757.7,172.4z"/>
		<path d="M612.4,172.4c0-0.3,0.1-0.7,0.1-1c0-56.9,0.1-113.9,0.1-170.8c0-0.2,0-0.4,0-0.6c17.9,0,35.7,0,53.6,0
			c0,57.5,0,114.9,0,172.4C648.3,172.4,630.4,172.4,612.4,172.4z"/>
	</g>
	<g>
		<path d="M136.2,406l-23.4-90.1c-3.2,10.9-24.3,90.1-24.3,90.1H44.9C33.3,363.4,14.1,288.6,2.7,246c-0.9-3.5-1.7-7.1-2.7-11.4
			c17.8,0,34.4,0,52.4,0l21.4,90.2L98,234.5h30.8c5.1,18.9,24,90.2,24,90.2s17.7-72.2,21.9-91c0,0,37.4,0,52.1,0
			c0,0-46.2,172.2-47.4,172.2C179.4,406,148.1,406,136.2,406z"/>
		<path d="M744.3,406c0-55.8,0-113.6,0-171.5c25.5,0,50.6,0,69.8,0c56.2,0,89.9,37.6,89.9,85.5c0,47.1-34.8,86-89.9,86
			C785.2,406,774,406,744.3,406z M796.7,272.8c0,32.3,0,63.4,0,95.1c7.7,0,10.7,0,17.3,0c18.4,0,37.8-21.7,37.8-47.9
			c0-31.9-18.2-47.2-37.8-47.2C807.4,272.8,804.9,272.5,796.7,272.8z"/>
		<path d="M320,230.8c53.4,0,90.1,42.3,90.4,89.4c0.3,52.8-36.7,89.8-89.9,89.9c-54.1,0.1-91-36.4-90.9-90
			C229.6,267.2,266.4,230.8,320,230.8z M357.4,321.2c0-8.4-1.2-17.4-3.7-25.2c-5.1-15.7-17-23.9-33.2-24.1
			c-16.7-0.2-29.1,8-34.4,24.1c-5.8,17.4-5.9,35,1.3,52c6,14.4,17.5,21.2,33,21.1c15.1-0.1,26.4-7,31.8-21.1
			C355.6,339.3,357.4,330.4,357.4,321.2z"/>
		<path d="M433.7,234.5c32.8,0,49.3,0,82.1,0c38.9,0,65.5,23.7,65.5,60.1c0,30.2-19.4,42.6-37.8,49.5c14.1,20.1,28.5,40.2,43.7,61.9
			c-19.1,0-38.7,0.6-55.8,0l-34.8-54.2h-10.5c0,17.2,0,36.3,0,54.2c-17.6,0-34.8,0-52,0C434.2,349,433.7,289.9,433.7,234.5z
			 M486.2,317.9c5.7,0,14.8,0,21.4,0c13.3,0,21.4-9.3,21.4-22.8c0-15.1-8-22.8-20.9-22.8c-7.1,0-13.5,0-22,0
			C486.2,288.1,486.2,302.6,486.2,317.9z"/>
		<path d="M1224.2,234.3c18.5,0,34.7,0,51,0c0.6,1.2,1.5,2.2,1.5,3.2c-0.1,36.6,0.9,73.4-0.9,109.9c-1.7,33.8-24.7,56.4-58.4,60.5
			c-10.8,1.3-22.1,1.3-32.8-0.4c-34.7-5.5-55.7-27.7-57.6-64c-1.8-35.8-0.4-71.7-0.4-108.6c17.4,0,34.4,0,53.1,0c0,4.3,0,8.3,0,12.4
			c0,31.4,0,62.8,0.2,94.1c0.1,10.3,2.7,19.7,13.6,23.9c15.8,6.1,30-4,30.4-22.7c0.7-31.4,0.3-62.7,0.4-94.1
			C1224.2,244.2,1224.2,239.7,1224.2,234.3z"/>
		<path d="M1307.3,409.6c0-56.8,0-114.6,0-170.5c0,0,48.7,0,79.4,0c34.2,0,63.7,20.6,63.7,60.8c0,35.3-23.7,56.4-63.7,60.2
			c-10.5,1.2-14.9,0.4-27.1,0.6c0,16.1,0,32.1,0,48.9C1341.5,409.6,1324.7,409.6,1307.3,409.6z M1360.1,276.6c0,16,0,30.6,0,46.4
			h19.3c13.1,0,19.3-12,19.3-23.1c0-13.1-6.9-23-22.2-22.6C1376.5,277.4,1373.8,277,1360.1,276.6z"/>
		<path d="M1101.2,350.3c0,13.6-0.1,43.7-0.1,43.7s-3.6,2.4-6.8,4.4c-52.5,32.9-126.1-3.8-131.9-65.6c-4.2-45.6,14.2-81.2,50.8-95.6
			c27.7-10.9,55.4-9.6,82.2,4.2c7.3,3.8,10.6,8.2,10.6,8.2s-11.2,27-14.6,36.3c-29.7-17.5-52.5-17.2-67.1,0.5
			c-14.6,17.9-13.5,52,2.3,68.4C1044,372.9,1071,371.6,1101.2,350.3z"/>
		<path d="M729.4,367.3c-4.7,13-11,28.3-15.3,38.7c0,0-71.5-0.2-105.4-0.2c0-57.5,0-114,0-171.1c17.2,0,34,0,52.1,0
			c0,44.1,0,87.8,0,132.6C683.4,367.3,705.9,367.3,729.4,367.3z"/>
	</g>
	<g>
		<path d="M721.2,529.1c0-31.6-25.6-57.2-57.3-57.2H549.4c-31.6,0-57.3,25.6-57.3,57.2h57.3c-31.6,0-57.3,25.6-57.3,57.2v57.2l229,0
			v-57.2h-57.3C695.6,586.4,721.2,560.8,721.2,529.1z"/>
		<path d="M958.2,586.4c0-31.6-25.6-57.2-57.3-57.2h57.3c0-31.6-25.6-57.2-57.3-57.2H786.4c-31.6,0-57.3,25.6-57.3,57.2v57.2
			c0,31.6,25.6,57.2,57.3,57.2h114.5C932.6,643.6,958.2,618,958.2,586.4z"/>
	</g>
</g>
</svg>
